<svg width="640" height="320" viewBox="0 0 640 320" fill="none" xmlns="http://www.w3.org/2000/svg">
  <rect width="640" height="320" fill="#020817"/>
  <defs>
    <radialGradient id="hubGlow" cx="0" cy="0" r="1" gradientUnits="userSpaceOnUse" gradientTransform="translate(500 70) rotate(130) scale(210 170)">
      <stop stop-color="#F59E0B" stop-opacity="0.42"/>
      <stop offset="0.52" stop-color="#22D3EE" stop-opacity="0.16"/>
      <stop offset="1" stop-color="#020817" stop-opacity="0"/>
    </radialGradient>
    <radialGradient id="routeGlow" cx="0" cy="0" r="1" gradientUnits="userSpaceOnUse" gradientTransform="translate(210 230) rotate(20) scale(260 120)">
      <stop stop-color="#38BDF8" stop-opacity="0.36"/>
      <stop offset="0.48" stop-color="#2563EB" stop-opacity="0.16"/>
      <stop offset="1" stop-color="#020817" stop-opacity="0"/>
    </radialGradient>
    <linearGradient id="routeLine" x1="62" y1="216" x2="582" y2="118" gradientUnits="userSpaceOnUse">
      <stop stop-color="#67E8F9" stop-opacity="0"/>
      <stop offset="0.2" stop-color="#67E8F9" stop-opacity="0.72"/>
      <stop offset="0.55" stop-color="#FBBF24" stop-opacity="0.64"/>
      <stop offset="0.88" stop-color="#67E8F9" stop-opacity="0.62"/>
      <stop offset="1" stop-color="#67E8F9" stop-opacity="0"/>
    </linearGradient>
  </defs>
  <rect width="640" height="320" fill="url(#hubGlow)"/>
  <rect width="640" height="320" fill="url(#routeGlow)"/>
  <path d="M58 228C154 196 180 136 278 154C362 170 394 102 584 118" stroke="url(#routeLine)" stroke-width="3"/>
  <path d="M94 250C166 232 245 230 332 238C412 245 494 228 574 186" stroke="#67E8F9" stroke-opacity="0.22" stroke-width="2"/>
  <g opacity="0.7">
    <circle cx="96" cy="216" r="5" fill="#67E8F9"/>
    <circle cx="278" cy="154" r="5" fill="#FBBF24"/>
    <circle cx="430" cy="123" r="5" fill="#67E8F9"/>
    <circle cx="554" cy="119" r="5" fill="#FBBF24"/>
  </g>
  <g transform="translate(316 170)" opacity="0.74">
    <path d="M24 14H102L118 42V80H24V14Z" fill="#0F172A" fill-opacity="0.76" stroke="#67E8F9" stroke-opacity="0.72" stroke-width="2"/>
    <path d="M102 42H137L158 62V80H118V42Z" fill="#1E3A8A" fill-opacity="0.52" stroke="#FBBF24" stroke-opacity="0.56" stroke-width="2"/>
    <path d="M42 28H82" stroke="#67E8F9" stroke-opacity="0.72" stroke-width="2"/>
    <path d="M42 43H92" stroke="#67E8F9" stroke-opacity="0.34" stroke-width="2"/>
    <circle cx="56" cy="84" r="12" fill="#020817" stroke="#67E8F9" stroke-opacity="0.78" stroke-width="3"/>
    <circle cx="128" cy="84" r="12" fill="#020817" stroke="#FBBF24" stroke-opacity="0.72" stroke-width="3"/>
  </g>
  <g opacity="0.24">
    <path d="M72 92H184" stroke="#67E8F9"/>
    <path d="M86 112H218" stroke="#67E8F9"/>
    <path d="M460 72H574" stroke="#FBBF24"/>
    <path d="M430 92H552" stroke="#67E8F9"/>
    <path d="M78 276H262" stroke="#67E8F9"/>
    <path d="M398 272H580" stroke="#FBBF24"/>
  </g>
  <g opacity="0.52">
    <rect x="112" y="128" width="54" height="42" rx="6" stroke="#67E8F9" stroke-opacity="0.5"/>
    <path d="M125 144H153" stroke="#67E8F9" stroke-opacity="0.56"/>
    <path d="M125 156H145" stroke="#FBBF24" stroke-opacity="0.5"/>
    <rect x="198" y="82" width="44" height="34" rx="5" stroke="#FBBF24" stroke-opacity="0.46"/>
    <path d="M210 96H230" stroke="#FBBF24" stroke-opacity="0.5"/>
  </g>
</svg>
